# xmcd
#
# Track frame offsets:
#	150
#	33500
#	49529
#	76556
#	107313
#	143135
#	158129
#	175476
#	203231
#	227280
#	245287
#	264243
#
# Disc length: 3838
#
# Revision: 1
# Processed by: cddbd v1.5.1PL0 Copyright (c) Steve Scherf et al.
# Submitted via: CDex 1.51
# Normalized: r0:DSETVAR1
#
DISCID=860efc0c
DTITLE=Various Artist - Las Estrellas De La Salsa I
DYEAR=1900
DGENRE=Salsa
TTITLE0=Ruben Blades - Pedro Navaja
TTITLE1=Celia Cruz - La Bemba Colorá
TTITLE2=Willie Colon - Oh Que Será
TTITLE3=Héctor Lavoe - Periódico De Ayer
TTITLE4=El Gran Combo De Puerto Rico - No Hay Cama Pa'tanta Gente
TTITLE5=Ismale Rivera - Mi Negrita Que Espere
TTITLE6=Oscar D'leon - Llorarás
TTITLE7=Fania All Stars - Coro Miyare
TTITLE8=La Lupe - Besito Pa'tí
TTITLE9=Johnny Pacheco and Héctor Casanova - Préstame Los Guantes
TTITLE10=Cheo Feliciano - Anacaona
TTITLE11=Pete 'el Conde' - Catalina La O
EXTD=
EXTT0=
EXTT1=
EXTT2=
EXTT3=
EXTT4=
EXTT5=
EXTT6=
EXTT7=
EXTT8=
EXTT9=
EXTT10=
EXTT11=
PLAYORDER=
